<svg width="205" height="130" viewBox="0 0 205 130" fill="none" xmlns="http://www.w3.org/2000/svg">
<g id="Isolation_Mode">
<g id="Group">
<path id="Vector" d="M46.3391 70.5815C46.3391 70.5815 38.0441 84.8836 45.0856 85.5523C48.1824 85.8494 48.1824 80.0172 48.1824 80.0172C48.1824 80.0172 47.0027 83.4348 44.717 82.5433C42.1363 81.5402 46.3391 70.6187 46.3391 70.6187V70.5815Z" fill="#114620"/>
<path id="Vector_2" d="M67.8327 67.2754C67.8327 67.2754 66.4318 60.8116 63.8142 59.4C63.8142 59.4 63.1875 60.6259 62.8557 60.6259C62.5239 60.6259 59.5377 57.3568 61.123 55.7223C62.6714 54.0506 66.0262 57.394 67.6484 61.926C67.6484 61.926 70.6345 53.642 72.3304 53.6049C74.0631 53.5306 75.206 57.2454 75.206 57.2454C75.206 57.2454 72.7728 55.648 72.1092 56.4281C71.4087 57.1711 68.6069 63.5234 67.9064 67.2754H67.8327Z" fill="#114620"/>
<path id="Vector_3" d="M175.926 75.0019L177.732 71.3613C177.732 71.3613 183.078 75.6705 178.433 86.4063C178.433 86.4063 181.087 76.1906 175.926 75.0019Z" fill="#114620"/>
<path id="Vector_4" d="M130.286 49.4813L132.093 45.8408C132.093 45.8408 137.438 50.15 132.793 60.8858C132.793 60.8858 135.447 50.6701 130.286 49.4813Z" fill="#114620"/>
<path id="Vector_5" fill-rule="evenodd" clip-rule="evenodd" d="M131.391 84.0292C139.17 79.6828 144 75.6708 145.917 71.956C146.875 70.693 147.76 69.7643 148.534 69.1328C149.935 70.9902 151.262 71.0645 152.516 69.2814C152.774 69.0585 152.995 68.6498 153.106 67.9812C150.451 68.3526 149.124 67.7583 149.087 66.1609C149.014 62.1489 149.935 60.2915 151.815 60.4029C152.958 60.4029 154.064 60.4772 155.244 60.8116C151.041 62.2975 149.64 63.5234 151.115 64.5264C152.073 64.8607 153.364 64.8607 155.06 64.4521C156.424 62.9662 157.788 61.2945 159.262 59.3628C159.262 60.4029 159.262 61.4431 159.262 62.5204C157.345 64.7493 155.871 66.8667 154.875 68.8727C153.179 71.9932 151.926 73.3677 151.115 72.9962C149.788 72.9962 148.645 72.8104 147.576 72.5504C142.672 79.72 137.29 83.5091 131.354 83.992L131.391 84.0292Z" fill="#114620"/>
<g id="Group_2">
<path id="Vector_6" d="M154.218 29.3842C154.218 29.3842 154.07 29.5699 153.886 29.7557C153.886 29.7557 154.07 28.6412 152.411 27.5268C151.232 26.7467 153.591 27.0067 153.591 27.0067L154.513 27.341C154.513 27.341 154.845 28.4183 154.218 29.3842Z" fill="#134520"/>
<path id="Vector_7" d="M145.627 29.6443C145.627 29.6443 145.037 28.1584 143.488 28.7156C144.557 29.8672 144.963 31.6132 144.963 31.6132C144.963 31.6132 145.885 30.6102 145.627 29.6443Z" fill="#134520"/>
<path id="Vector_8" d="M85.5679 46.3611C83.0241 24.5179 70.2314 7.76411 70.2314 7.76411C70.2314 7.76411 74.3605 3.75211 93.6416 5.0523C101.162 5.57237 104.149 5.27519 108.167 4.56937C110.49 4.16074 112.775 3.38063 114.545 5.34948C116.72 7.76411 124.757 14.7108 132.609 18.7228C140.462 22.7348 145.439 26.6725 145.586 29.793C145.586 29.793 144.849 27.6012 140.278 30.1273C136.554 32.1705 131.835 34.8823 120.001 37.2598C109.9 39.3029 98.2868 40.4545 85.531 46.3611H85.5679Z" fill="url(#paint0_linear_3_38125)"/>
<path id="Vector_9" d="M132.651 18.6858C129.002 16.8284 125.278 14.3394 122.181 11.9248C121.665 12.0362 121.149 12.1477 120.596 12.222C116.578 12.9278 106.255 15.1195 98.6975 14.5995C83.4348 13.5593 77.6837 15.8625 75.9141 16.8655C79.6744 23.8494 84.1721 34.3252 85.5731 46.324C98.292 40.4174 109.942 39.2287 120.043 37.2227C131.877 34.8452 136.596 32.1706 140.32 30.0903C144.928 27.5642 145.628 29.7559 145.628 29.7559C145.444 26.5983 140.504 22.6606 132.651 18.6858Z" fill="url(#paint1_linear_3_38125)"/>
<path id="Vector_10" d="M75.9141 16.8655C77.9786 20.6918 80.2643 25.5953 82.1445 31.2047C92.8726 27.3784 102.495 26.8955 111.048 25.6696C122.108 24.0723 126.642 21.6948 130.181 19.8745C131.435 19.243 132.393 18.983 133.094 18.9087C132.946 18.8344 132.799 18.7601 132.651 18.6858C129.002 16.8284 125.278 14.3394 122.181 11.9248C121.665 12.0362 121.149 12.1477 120.596 12.222C116.578 12.9278 106.255 15.1195 98.6975 14.5995C83.4348 13.5593 77.6837 15.8625 75.9141 16.8655Z" fill="url(#paint2_linear_3_38125)"/>
<path id="Vector_11" d="M150.087 20.0972C145.294 16.0852 136.705 10.2529 135.193 8.54408C131.211 4.012 132.502 0 132.502 0C132.502 0 129.995 1.52307 124.391 3.49193C119.525 5.20074 115.764 5.57223 114.843 5.64652C117.313 8.39549 125.092 14.8221 132.612 18.6484C140.391 22.5861 145.331 26.4866 145.589 29.6442C145.847 30.6101 144.926 31.6131 144.926 31.6131C147.617 32.5046 151.23 28.4555 152.447 27.824C153.921 27.0439 154.548 28.2326 154.364 28.9013C154.327 29.087 154.216 29.3471 154.216 29.3471C155.801 27.2296 154.474 23.812 150.05 20.0972H150.087Z" fill="url(#paint3_linear_3_38125)"/>
<path id="Vector_12" d="M103.485 20.3571C103.485 20.3571 96.3329 16.4194 91.7246 14.4506C81.1439 9.91851 70.2314 7.76392 70.2314 7.76392C70.2314 7.76392 82.5817 24.592 85.5679 46.3609C89.3283 44.6149 103.485 20.3571 103.485 20.3571Z" fill="#F10017"/>
<path id="Vector_13" style="mix-blend-mode:multiply" opacity="0.55" d="M85.5679 46.3611C83.0241 24.5179 70.2314 7.76411 70.2314 7.76411C70.2314 7.76411 74.3605 3.75211 93.6416 5.0523C101.162 5.57237 104.149 5.27519 108.167 4.56937C110.49 4.16074 112.775 3.38063 114.545 5.34948C116.72 7.76411 124.757 14.7108 132.609 18.7228C140.462 22.7348 145.439 26.6725 145.586 29.793C145.586 29.793 144.849 27.6012 140.278 30.1273C136.554 32.1705 131.835 34.8823 120.001 37.2598C109.9 39.3029 98.2868 40.4545 85.531 46.3611H85.5679Z" fill="url(#paint4_linear_3_38125)"/>
<path id="Vector_14" d="M135.192 8.54414C134.934 8.24696 134.675 7.94977 134.454 7.65259L122.178 12.0361C125.311 14.3764 128.998 16.8282 132.611 18.6856C133.791 19.28 134.86 19.8743 135.892 20.4687C138.252 20.1344 143.155 19.2428 146.473 17.274C141.828 13.7449 136.334 9.88148 135.155 8.54414H135.192Z" fill="url(#paint5_linear_3_38125)"/>
<path id="Vector_15" d="M123.764 13.1876C126.308 12.8904 131.875 11.9617 136.004 9.32419C135.635 9.02701 135.377 8.76697 135.193 8.54408C131.211 4.012 132.502 0 132.502 0C132.502 0 129.995 1.52307 124.391 3.49193C119.525 5.20074 115.764 5.57223 114.843 5.64652C116.317 7.28104 119.672 10.2157 123.764 13.1505V13.1876Z" fill="url(#paint6_linear_3_38125)"/>
<g id="Group_3">
<g id="Group_4">
<path id="Vector_16" d="M70.1375 6.51623L68.9766 6.99243L105.853 98.2732L107.014 97.797L70.1375 6.51623Z" fill="url(#paint7_linear_3_38125)"/>
<path id="Vector_17" d="M70.4964 5.34928C70.7914 6.0551 70.4227 6.87236 69.7222 7.16954C69.0218 7.46673 68.2107 7.09525 67.9158 6.38943C67.6208 5.68362 67.9895 4.86636 68.69 4.56917C69.3904 4.27199 70.2015 4.60632 70.4964 5.34928Z" fill="url(#paint8_linear_3_38125)"/>
</g>
<path id="Vector_18" d="M119.969 84.3633C120.3 78.4939 124.945 68.7983 121.259 65.975C118.383 63.7833 115.545 64.9349 115.139 64.6748C114.733 64.4148 114.697 63.8576 115.065 63.2632C115.065 63.2632 118.051 56.8366 115.803 53.196C115.618 52.8989 115.434 52.6388 115.213 52.4159C115.471 51.933 115.876 51.673 115.876 51.673C115.25 51.0414 113.185 51.0043 113.185 51.0043C113.185 51.0043 113.148 51.0043 113.111 51.0043C112.927 50.93 112.743 50.8929 112.558 50.8557C107.655 49.7413 106.365 53.196 106.365 53.196C106.365 53.196 104.89 54.682 105.554 58.3596C106.217 62.0373 109.019 62.6688 109.019 62.6688C109.277 62.966 109.535 63.2632 109.867 63.5604C110.125 64.8234 110.236 65.2692 110.236 65.2692C110.236 65.2692 108.614 67.0523 105.222 66.0493C101.83 65.0835 95.6367 63.1146 95.6367 63.1146C95.6367 63.1146 93.8302 59.7713 92.8348 59.3255C91.8763 58.9169 90.9546 59.3255 90.9546 59.3255C90.9546 59.3255 87.4523 60.7743 87.3049 61.4058C87.1943 62.0002 88.927 64.4519 89.5906 65.4921C90.2542 66.5322 90.9178 66.6437 92.245 66.4579C93.5722 66.2722 94.4201 66.4579 96.374 67.8696C98.3279 69.2812 106.254 72.8846 106.254 72.8846C106.254 72.8846 110.494 75.0392 116.171 73.3675C116.208 73.3675 116.245 73.3303 116.319 73.2932C116.319 73.2932 112.079 75.745 106.365 73.5904C106.549 75.0392 106.955 78.4568 107.028 80.8714C106.992 81.3172 106.697 81.5401 106.107 81.6515C105.517 81.763 102.051 81.9116 102.051 81.9116C102.051 81.9116 100.429 79.4969 99.4339 79.5712C98.4754 79.6455 95.821 80.5742 95.8947 81.1686C95.9685 81.763 97.1851 84.6605 97.7012 85.3292C98.2173 85.9979 99.3602 85.7378 100.356 85.6264C101.351 85.5149 101.683 85.2178 102.088 85.3292C102.494 85.4406 106.033 85.032 106.217 85.1435C106.291 85.2178 104.743 93.5761 103.047 102.529H110.863L112.374 96.6965L114.402 102.529H122.918C121.185 95.9907 119.784 89.1555 119.858 84.2891L119.969 84.3633Z" fill="url(#paint9_linear_3_38125)"/>
</g>
</g>
<g id="Group_5">
<g id="Group_6">
<path id="Vector_19" d="M191.627 117.016C184.696 117.016 179.056 111.333 179.056 104.349C179.056 97.3648 184.696 91.6812 191.627 91.6812C198.558 91.6812 204.199 97.3648 204.199 104.349C204.199 111.333 198.558 117.016 191.627 117.016ZM191.627 99.8537C189.157 99.8537 187.166 101.86 187.166 104.349C187.166 106.838 189.157 108.844 191.627 108.844C194.097 108.844 196.088 106.838 196.088 104.349C196.088 101.86 194.097 99.8537 191.627 99.8537Z" fill="#114620"/>
<path id="Vector_20" d="M191.629 117.016H178.542C176.293 117.016 174.486 115.196 174.486 112.93C174.486 110.664 176.293 108.844 178.542 108.844H191.629C193.878 108.844 195.685 110.664 195.685 112.93C195.685 115.196 193.878 117.016 191.629 117.016Z" fill="#114620"/>
</g>
<g id="Group_7">
<path id="Vector_21" d="M82.9514 117.017H82.8408C69.6058 117.017 68.168 109.921 68.168 106.875C68.168 100.411 75.8731 93.799 81.3661 91.9044C86.7855 90.047 93.0528 91.0129 96.9606 94.319C100.389 97.2166 101.827 101.6 101.053 106.615C99.4307 116.942 87.9652 117.017 82.9514 117.017ZM83.9837 99.6312C80.3708 100.857 76.2786 105.278 76.2786 106.838C76.2786 108.695 81.5873 108.807 82.6565 108.807C88.7394 108.807 92.5367 108.212 93.0159 105.278C93.5321 102.083 92.168 100.931 91.7256 100.56C89.9929 99.074 86.7118 98.6654 83.9837 99.6312Z" fill="#114620"/>
<path id="Vector_22" d="M82.6917 117.017H69.6041C67.3553 117.017 65.5488 115.196 65.5488 112.93C65.5488 110.664 67.3553 108.844 69.6041 108.844H82.6917C84.9406 108.844 86.747 110.664 86.747 112.93C86.747 115.196 84.9406 117.017 82.6917 117.017Z" fill="#114620"/>
</g>
<path id="Vector_23" d="M153.842 117.091C145.326 117.091 139.611 111.444 139.611 103.086V93.2045C139.611 90.9385 141.418 89.1182 143.667 89.1182C145.915 89.1182 147.722 90.9385 147.722 93.2045V103.086C147.722 106.949 149.786 108.918 153.805 108.918C157.823 108.918 159.409 107.247 159.409 103.086V78.6796C159.409 76.4135 161.215 74.5933 163.464 74.5933C165.713 74.5933 167.519 76.4135 167.519 78.6796V103.086C167.519 111.741 162.247 117.091 153.768 117.091H153.842Z" fill="#114620"/>
<path id="Vector_24" d="M136.221 117.091C130.47 117.091 124.313 113.413 124.313 103.086V97.6251C124.313 95.3591 126.12 93.5388 128.369 93.5388C130.618 93.5388 132.424 95.3591 132.424 97.6251V103.086C132.424 108.918 135.005 108.918 136.221 108.918C138.286 108.918 139.65 106.615 139.65 103.086V93.2045C139.65 90.9384 141.456 89.1182 143.705 89.1182C145.954 89.1182 147.761 90.9384 147.761 93.2045V103.086C147.761 112.299 141.936 117.091 136.221 117.091Z" fill="#114620"/>
<path id="Vector_25" d="M120.809 117.016C115.058 117.016 108.901 113.338 108.901 103.011V97.5504C108.901 95.2844 110.708 93.4641 112.957 93.4641C115.206 93.4641 117.012 95.2844 117.012 97.5504V103.011C117.012 108.843 119.593 108.843 120.809 108.843C122.874 108.843 124.238 106.54 124.238 103.011V98.7763C124.238 96.5103 126.044 94.69 128.293 94.69C130.542 94.69 132.348 96.5103 132.348 98.7763V103.011C132.348 112.224 126.524 117.016 120.809 117.016Z" fill="#114620"/>
<path id="Vector_26" d="M105.439 117.016H90.7662C88.5174 117.016 86.7109 115.196 86.7109 112.93C86.7109 110.664 88.5174 108.844 90.7662 108.844H105.439C107.504 108.844 108.868 106.54 108.868 103.011V98.7765C108.868 96.5104 110.674 94.6902 112.923 94.6902C115.172 94.6902 116.978 96.5104 116.978 98.7765V103.011C116.978 112.224 111.153 117.016 105.439 117.016Z" fill="#114620"/>
<path id="Vector_27" d="M40.4074 117.016C34.6562 117.016 28.8682 112.187 28.8682 103.011V97.5504C28.8682 95.2844 30.6746 93.4641 32.9235 93.4641C35.1723 93.4641 36.9788 95.2844 36.9788 97.5504V103.011C36.9788 106.54 38.306 108.843 40.4074 108.843C40.5548 108.843 46.306 108.843 46.7852 108.843C47.8544 108.806 50.2507 108.695 50.2507 103.011V97.5504C50.2507 95.2844 52.0571 93.4641 54.306 93.4641C56.5548 93.4641 58.3613 95.2844 58.3613 97.5504V103.011C58.3613 112.967 52.4995 116.793 47.0433 117.016C46.7484 117.016 40.6654 117.016 40.4074 117.016Z" fill="#114620"/>
<path id="Vector_28" d="M11.5392 117.016C5.78803 117.016 0 112.187 0 103.011V97.5504C0 95.2844 1.80646 93.4641 4.05531 93.4641C6.30416 93.4641 8.11061 95.2844 8.11061 97.5504V103.011C8.11061 106.54 9.43781 108.843 11.5392 108.843C11.6867 108.843 24.8111 108.843 25.401 108.843C26.4332 108.806 28.8295 108.695 28.8295 103.011V97.5504C28.8295 95.2844 30.636 93.4641 32.8849 93.4641C35.1337 93.4641 36.9402 95.2844 36.9402 97.5504V103.011C36.9402 112.967 31.0784 116.793 25.6222 117.016C25.3272 117.016 12.9401 117.016 11.5023 117.016H11.5392Z" fill="#114620"/>
<path id="Vector_29" d="M93.79 117.016H63.3383C57.0342 117.016 50.2139 111.667 50.2139 103.011V98.7765C50.2139 96.5104 52.0203 94.6902 54.2692 94.6902C56.518 94.6902 58.3245 96.5104 58.3245 98.7765V103.011C58.3245 107.358 61.7531 108.844 63.3383 108.844H93.79C96.0388 108.844 97.8453 110.664 97.8453 112.93C97.8453 115.196 96.0388 117.016 93.79 117.016Z" fill="#114620"/>
<path id="Vector_30" d="M178.619 117.016H172.61C166.306 117.016 159.485 111.667 159.485 103.011V98.7765C159.485 96.5104 161.292 94.6902 163.541 94.6902C165.79 94.6902 167.596 96.5104 167.596 98.7765V103.011C167.596 107.358 171.025 108.844 172.61 108.844H178.619C180.868 108.844 182.674 110.664 182.674 112.93C182.674 115.196 180.868 117.016 178.619 117.016Z" fill="#114620"/>
<path id="Vector_31" d="M68.1647 115.307C65.9158 115.307 64.1094 113.487 64.1094 111.221V78.642C64.1094 76.3759 65.9158 74.5557 68.1647 74.5557C70.4135 74.5557 72.22 76.3759 72.22 78.642V111.221C72.22 113.487 70.4135 115.307 68.1647 115.307Z" fill="#114620"/>
<path id="Vector_32" d="M191.854 88.6353C193.971 88.6353 195.688 86.9056 195.688 84.7719C195.688 82.6382 193.971 80.9084 191.854 80.9084C189.736 80.9084 188.02 82.6382 188.02 84.7719C188.02 86.9056 189.736 88.6353 191.854 88.6353Z" fill="#114620"/>
<path id="Vector_33" d="M19.0978 88.6353C21.2153 88.6353 22.9319 86.9056 22.9319 84.7719C22.9319 82.6382 21.2153 80.9084 19.0978 80.9084C16.9803 80.9084 15.2637 82.6382 15.2637 84.7719C15.2637 86.9056 16.9803 88.6353 19.0978 88.6353Z" fill="#114620"/>
<path id="Vector_34" fill-rule="evenodd" clip-rule="evenodd" d="M42.8001 125.969C42.8001 128.086 41.0673 129.832 38.9659 129.832C36.8646 129.832 35.1318 128.086 35.1318 125.969C35.1318 123.851 36.8646 122.105 38.9659 122.105C41.0673 122.105 42.8001 123.851 42.8001 125.969Z" fill="#114620"/>
<path id="Vector_35" d="M47.7794 129.832C49.8969 129.832 51.6135 128.103 51.6135 125.969C51.6135 123.835 49.8969 122.105 47.7794 122.105C45.6619 122.105 43.9453 123.835 43.9453 125.969C43.9453 128.103 45.6619 129.832 47.7794 129.832Z" fill="#114620"/>
</g>
</g>
</g>
<defs>
<linearGradient id="paint0_linear_3_38125" x1="93.3098" y1="23.2549" x2="132.046" y2="14.9807" gradientUnits="userSpaceOnUse">
<stop stop-color="#1E1E1E"/>
<stop offset="1" stop-color="#2B2B2B"/>
</linearGradient>
<linearGradient id="paint1_linear_3_38125" x1="105.407" y1="24.9267" x2="142.539" y2="14.1573" gradientUnits="userSpaceOnUse">
<stop stop-color="#15652F"/>
<stop offset="0.84" stop-color="#35A349"/>
<stop offset="0.87" stop-color="#319B46"/>
<stop offset="0.93" stop-color="#28883E"/>
<stop offset="0.99" stop-color="#1A6730"/>
<stop offset="1" stop-color="#18632F"/>
</linearGradient>
<linearGradient id="paint2_linear_3_38125" x1="122.145" y1="10.1417" x2="88.7742" y2="24.5182" gradientUnits="userSpaceOnUse">
<stop stop-color="#E6E7E8"/>
<stop offset="0.39" stop-color="#BBBDBF"/>
<stop offset="0.5" stop-color="#AAACAE"/>
<stop offset="0.7" stop-color="#7F8183"/>
<stop offset="0.94" stop-color="#474A4C"/>
</linearGradient>
<linearGradient id="paint3_linear_3_38125" x1="137.516" y1="16.1595" x2="151.339" y2="9.99723" gradientUnits="userSpaceOnUse">
<stop stop-color="#15652F"/>
<stop offset="0.84" stop-color="#35A349"/>
<stop offset="0.87" stop-color="#319B46"/>
<stop offset="0.93" stop-color="#28883E"/>
<stop offset="0.99" stop-color="#1A6730"/>
<stop offset="1" stop-color="#18632F"/>
</linearGradient>
<linearGradient id="paint4_linear_3_38125" x1="107.977" y1="18.6659" x2="120.223" y2="1.92566" gradientUnits="userSpaceOnUse">
<stop stop-color="#4F4D4D"/>
<stop offset="0.04" stop-color="#5B5959"/>
<stop offset="0.11" stop-color="#7B7A7A"/>
<stop offset="0.18" stop-color="#9F9F9F"/>
<stop offset="0.27" stop-color="#9A9898"/>
<stop offset="0.33" stop-color="#949090"/>
<stop offset="0.4" stop-color="#9F9C9C"/>
<stop offset="0.54" stop-color="#C1C0C0"/>
<stop offset="0.61" stop-color="#BAB9B9"/>
<stop offset="0.69" stop-color="#A7A6A6"/>
<stop offset="0.79" stop-color="#888787"/>
<stop offset="0.91" stop-color="#5E5C5C"/>
<stop offset="0.94" stop-color="#4F4D4D"/>
</linearGradient>
<linearGradient id="paint5_linear_3_38125" x1="140.132" y1="6.76103" x2="129.409" y2="21.208" gradientUnits="userSpaceOnUse">
<stop stop-color="#E6E7E8"/>
<stop offset="0.39" stop-color="#BBBDBF"/>
<stop offset="0.5" stop-color="#AAACAE"/>
<stop offset="0.7" stop-color="#7F8183"/>
<stop offset="0.94" stop-color="#474A4C"/>
</linearGradient>
<linearGradient id="paint6_linear_3_38125" x1="118.161" y1="11.6274" x2="137.549" y2="0.868716" gradientUnits="userSpaceOnUse">
<stop stop-color="#1E1E1E"/>
<stop offset="1" stop-color="#2B2B2B"/>
</linearGradient>
<linearGradient id="paint7_linear_3_38125" x1="96.8461" y1="116.815" x2="87.2288" y2="47.6649" gradientUnits="userSpaceOnUse">
<stop offset="0.04" stop-color="white"/>
<stop offset="0.39" stop-color="#BEBFC0"/>
<stop offset="1" stop-color="#474A4C"/>
</linearGradient>
<linearGradient id="paint8_linear_3_38125" x1="83.2522" y1="108.547" x2="74.4956" y2="45.636" gradientUnits="userSpaceOnUse">
<stop offset="0.04" stop-color="white"/>
<stop offset="0.39" stop-color="#BEBFC0"/>
<stop offset="1" stop-color="#474A4C"/>
</linearGradient>
<linearGradient id="paint9_linear_3_38125" x1="110.199" y1="107.655" x2="103.575" y2="54.3599" gradientUnits="userSpaceOnUse">
<stop offset="0.09" stop-color="white"/>
<stop offset="0.42" stop-color="#BEBFC0"/>
<stop offset="1" stop-color="#474A4C"/>
</linearGradient>
</defs>
</svg>
