<svg width="274" height="738" viewBox="0 0 274 738" fill="none" xmlns="http://www.w3.org/2000/svg">
<path fill-rule="evenodd" clip-rule="evenodd" d="M210.268 412.253C212.706 360.322 241.491 311.579 246.137 278.16C245.817 246.276 248.479 244.369 254.257 224.217C267.105 184.982 251.384 143.53 251.547 103.323C249.045 76.5636 275.635 45.815 273.027 17.6079C271.235 -1.71028 250.462 -3.26959 240.855 4.02031C233.455 9.29171 230.769 21.1727 225.062 25.4774C215.831 31.0543 204.501 26.3583 193.159 25.9657C180.037 24.5943 162.686 29.2988 161.288 41.116C159.97 52.5478 163.218 70.7164 156.088 74.5928C148.125 79.3673 137.323 80.6641 131.754 88.5286C122.961 102.699 123.797 121.058 122.14 137.7C120.435 154.793 117.474 168.615 114.113 187.942C107.045 223.876 101 255.501 87.8048 282.474C66.8477 324.113 31.8454 345.462 0.51972 379.048C-3.79723 387.311 20.1689 438.517 21.1622 443.599C55.3824 524.793 57.1786 539.107 66.5894 582.858C79.6076 639.163 97.556 659.905 107.288 713.255C110.086 723.508 110.931 734.164 115.827 736.152C129.825 746.051 150.888 679.349 154.31 674.715C159.708 659.568 183.025 642.234 185.188 622.423C186.741 613.406 186.014 604.21 184.596 594.489C182.256 577.334 176.532 561.054 181.096 545.203C182.804 539.647 185.547 534.716 188.583 529.552C205.35 503.758 207.332 491.33 212.949 470.348C222.62 425.056 244.206 426.471 210.268 412.253ZM211.67 429.388C205.5 441.343 203.931 445.984 201.069 456.721C186.785 522.598 166.161 523.157 164.461 553.536C163.308 572.698 171.198 593.148 171.082 612.72C172.169 634.935 143.302 654.777 139.803 670.452C138.432 673.767 136.406 678.666 133.976 684.375C130.396 692.783 126.082 702.591 122.116 710.628C109.529 651.945 101.873 647.498 88.2121 605.935C83.9135 592.247 80.9708 578.924 77.949 565.083C65.7462 497.771 34.5728 446.128 15.584 384.804C81.0735 321.863 103.958 310.643 122.911 220.123C144.108 123.051 134.509 112.574 144.303 96.8825C150.756 91.8195 159.91 91.3084 166.216 85.7429C178.2 77.5014 175.728 55.0676 176.223 43.8353C189.316 35.758 209.71 46.174 223.959 42.0116C239.159 38.7623 242.229 26.5492 248.34 17.7278C255.673 11.0019 259.461 17.1085 258.047 24.2086C249.601 67.1525 232.454 76.0592 236.855 111.483C245.541 204.796 249.613 188.161 232.964 245.116C229.413 261.72 233.747 280.015 225.961 296.78C218.294 322.127 208.035 342.952 201.209 372.456C192.6 417.769 191.66 421.987 211.67 429.388Z" fill="#F4EFDB"/>
</svg>
